<mxfile host="65bd71144e">
    <diagram id="kh9TKrhoB-416zWy9Qs4" name="Data Analysis Pipeline">
        <mxGraphModel dx="1111" dy="779" grid="1" gridSize="10" guides="1" tooltips="1" connect="1" arrows="1" fold="1" page="1" pageScale="1" pageWidth="850" pageHeight="1100" math="0" shadow="0">
            <root>
                <mxCell id="0"/>
                <mxCell id="1" parent="0"/>
                <mxCell id="28" style="edgeStyle=none;html=1;exitX=0.5;exitY=1;exitDx=0;exitDy=0;" parent="1" source="2" target="5" edge="1">
                    <mxGeometry relative="1" as="geometry"/>
                </mxCell>
                <mxCell id="2" value="&lt;font style=&quot;font-size: 18px;&quot;&gt;Raw Sensor Data&lt;/font&gt;" style="rounded=1;whiteSpace=wrap;html=1;fillColor=#d5e8d4;strokeColor=#82b366;" parent="1" vertex="1">
                    <mxGeometry x="760" y="300" width="120" height="60" as="geometry"/>
                </mxCell>
                <mxCell id="29" style="edgeStyle=none;html=1;exitX=0.5;exitY=1;exitDx=0;exitDy=0;" parent="1" source="3" target="6" edge="1">
                    <mxGeometry relative="1" as="geometry"/>
                </mxCell>
                <mxCell id="3" value="&lt;font style=&quot;font-size: 18px;&quot;&gt;Behavioural Data&lt;/font&gt;" style="rounded=1;whiteSpace=wrap;html=1;fillColor=#dae8fc;strokeColor=#6c8ebf;" parent="1" vertex="1">
                    <mxGeometry x="950" y="300" width="120" height="60" as="geometry"/>
                </mxCell>
                <mxCell id="25" style="edgeStyle=none;html=1;exitX=0.5;exitY=1;exitDx=0;exitDy=0;entryX=0.5;entryY=0;entryDx=0;entryDy=0;" parent="1" source="5" target="10" edge="1">
                    <mxGeometry relative="1" as="geometry"/>
                </mxCell>
                <mxCell id="5" value="&lt;font style=&quot;font-size: 18px;&quot;&gt;Preprocessing&lt;/font&gt;" style="rounded=0;whiteSpace=wrap;html=1;fillColor=#fff2cc;strokeColor=#d6b656;" parent="1" vertex="1">
                    <mxGeometry x="760" y="400" width="120" height="60" as="geometry"/>
                </mxCell>
                <mxCell id="24" style="edgeStyle=none;html=1;exitX=0.5;exitY=1;exitDx=0;exitDy=0;entryX=0.5;entryY=0;entryDx=0;entryDy=0;" parent="1" source="6" target="9" edge="1">
                    <mxGeometry relative="1" as="geometry"/>
                </mxCell>
                <mxCell id="6" value="&lt;font style=&quot;font-size: 18px;&quot;&gt;Preprocessing&lt;/font&gt;" style="rounded=0;whiteSpace=wrap;html=1;fillColor=#e1d5e7;strokeColor=#9673a6;" parent="1" vertex="1">
                    <mxGeometry x="950" y="400" width="120" height="60" as="geometry"/>
                </mxCell>
                <mxCell id="23" style="edgeStyle=none;html=1;exitX=0.5;exitY=1;exitDx=0;exitDy=0;entryX=0.5;entryY=0;entryDx=0;entryDy=0;" parent="1" source="9" target="16" edge="1">
                    <mxGeometry relative="1" as="geometry"/>
                </mxCell>
                <mxCell id="9" value="&lt;font style=&quot;font-size: 18px;&quot;&gt;Label Generation&lt;/font&gt;" style="rounded=0;whiteSpace=wrap;html=1;fillColor=#e1d5e7;strokeColor=#9673a6;" parent="1" vertex="1">
                    <mxGeometry x="950" y="500" width="120" height="60" as="geometry"/>
                </mxCell>
                <mxCell id="26" style="edgeStyle=none;html=1;exitX=0.5;exitY=1;exitDx=0;exitDy=0;entryX=0.5;entryY=0;entryDx=0;entryDy=0;" parent="1" source="10" edge="1">
                    <mxGeometry relative="1" as="geometry">
                        <mxPoint x="820" y="600" as="targetPoint"/>
                    </mxGeometry>
                </mxCell>
                <mxCell id="10" value="&lt;font style=&quot;font-size: 18px;&quot;&gt;Feature Engineering&lt;/font&gt;" style="rounded=0;whiteSpace=wrap;html=1;fillColor=#fff2cc;strokeColor=#d6b656;" parent="1" vertex="1">
                    <mxGeometry x="760" y="500" width="120" height="60" as="geometry"/>
                </mxCell>
                <mxCell id="kYNwstDlMvqOuEoNITbD-39" style="edgeStyle=none;html=1;exitX=0.5;exitY=1;exitDx=0;exitDy=0;" parent="1" source="14" target="kYNwstDlMvqOuEoNITbD-35" edge="1">
                    <mxGeometry relative="1" as="geometry"/>
                </mxCell>
                <mxCell id="14" value="&lt;font style=&quot;font-size: 18px;&quot;&gt;Harmonised Dataset&lt;/font&gt;" style="rounded=0;whiteSpace=wrap;html=1;fillColor=#ffe6cc;strokeColor=#d79b00;" parent="1" vertex="1">
                    <mxGeometry x="1140" y="300" width="120" height="60" as="geometry"/>
                </mxCell>
                <mxCell id="21" style="edgeStyle=none;html=1;exitX=1;exitY=0.5;exitDx=0;exitDy=0;entryX=0;entryY=0.5;entryDx=0;entryDy=0;" parent="1" target="16" edge="1">
                    <mxGeometry relative="1" as="geometry">
                        <mxPoint x="880" y="630" as="sourcePoint"/>
                    </mxGeometry>
                </mxCell>
                <mxCell id="kYNwstDlMvqOuEoNITbD-41" style="edgeStyle=none;html=1;exitX=1;exitY=0.5;exitDx=0;exitDy=0;entryX=0;entryY=0.5;entryDx=0;entryDy=0;" parent="1" source="16" target="14" edge="1">
                    <mxGeometry relative="1" as="geometry">
                        <Array as="points">
                            <mxPoint x="1100" y="630"/>
                            <mxPoint x="1100" y="330"/>
                        </Array>
                    </mxGeometry>
                </mxCell>
                <mxCell id="16" value="&lt;font style=&quot;font-size: 18px;&quot;&gt;Temporal Alignment&lt;/font&gt;" style="rounded=0;whiteSpace=wrap;html=1;fillColor=#f8cecc;strokeColor=#b85450;" parent="1" vertex="1">
                    <mxGeometry x="950" y="600" width="120" height="60" as="geometry"/>
                </mxCell>
                <mxCell id="kYNwstDlMvqOuEoNITbD-38" style="edgeStyle=none;html=1;exitX=0.5;exitY=1;exitDx=0;exitDy=0;entryX=0.5;entryY=0;entryDx=0;entryDy=0;" parent="1" source="kYNwstDlMvqOuEoNITbD-35" target="kYNwstDlMvqOuEoNITbD-37" edge="1">
                    <mxGeometry relative="1" as="geometry"/>
                </mxCell>
                <mxCell id="kYNwstDlMvqOuEoNITbD-35" value="&lt;font style=&quot;font-size: 18px;&quot;&gt;Deep Learning based Modeling&lt;/font&gt;" style="rounded=0;whiteSpace=wrap;html=1;fillColor=#ffe6cc;strokeColor=#d79b00;" parent="1" vertex="1">
                    <mxGeometry x="1140" y="400" width="120" height="160" as="geometry"/>
                </mxCell>
                <mxCell id="kYNwstDlMvqOuEoNITbD-37" value="&lt;font style=&quot;font-size: 18px;&quot;&gt;Evaluation&lt;/font&gt;" style="rounded=0;whiteSpace=wrap;html=1;fillColor=#ffe6cc;strokeColor=#d79b00;" parent="1" vertex="1">
                    <mxGeometry x="1140" y="600" width="120" height="60" as="geometry"/>
                </mxCell>
                <mxCell id="kYNwstDlMvqOuEoNITbD-43" value="&lt;font style=&quot;font-size: 18px;&quot;&gt;Normalisation &amp;amp; Aggregation&lt;/font&gt;" style="rounded=0;whiteSpace=wrap;html=1;fillColor=#fff2cc;strokeColor=#d6b656;" parent="1" vertex="1">
                    <mxGeometry x="760" y="600" width="120" height="60" as="geometry"/>
                </mxCell>
            </root>
        </mxGraphModel>
    </diagram>
    <diagram name="Advanced Analysis" id="6QKabd8VvvWz8jXyyj9M">
        <mxGraphModel dx="1111" dy="779" grid="1" gridSize="10" guides="1" tooltips="1" connect="1" arrows="1" fold="1" page="1" pageScale="1" pageWidth="850" pageHeight="1100" math="0" shadow="0">
            <root>
                <mxCell id="nuFoWLF7ntMRhejHpa03-0"/>
                <mxCell id="nuFoWLF7ntMRhejHpa03-1" parent="nuFoWLF7ntMRhejHpa03-0"/>
                <mxCell id="mj_ESQsJM1upDVN6lyhj-3" style="edgeStyle=none;html=1;exitX=0.5;exitY=1;exitDx=0;exitDy=0;" edge="1" parent="nuFoWLF7ntMRhejHpa03-1" source="nuFoWLF7ntMRhejHpa03-40" target="pstDxix02JmBtCDwMcPG-0">
                    <mxGeometry relative="1" as="geometry"/>
                </mxCell>
                <mxCell id="nuFoWLF7ntMRhejHpa03-40" value="&lt;font style=&quot;font-size: 18px;&quot;&gt;Evaluation&lt;/font&gt;" style="rounded=0;whiteSpace=wrap;html=1;fillColor=#fff2cc;strokeColor=#d6b656;" parent="nuFoWLF7ntMRhejHpa03-1" vertex="1">
                    <mxGeometry x="1287.5" y="500" width="120" height="60" as="geometry"/>
                </mxCell>
                <mxCell id="6PdX3UHOtiKW7pyZz6Wf-19" style="edgeStyle=none;html=1;exitX=0.25;exitY=1;exitDx=0;exitDy=0;entryX=0.5;entryY=0;entryDx=0;entryDy=0;" parent="nuFoWLF7ntMRhejHpa03-1" source="4NHkNy5tPfDzqego02Xz-0" target="Y4YnXaoWic6sforbAB5M-0" edge="1">
                    <mxGeometry relative="1" as="geometry"/>
                </mxCell>
                <mxCell id="6PdX3UHOtiKW7pyZz6Wf-27" style="edgeStyle=none;html=1;exitX=0.75;exitY=1;exitDx=0;exitDy=0;entryX=0.5;entryY=0;entryDx=0;entryDy=0;" parent="nuFoWLF7ntMRhejHpa03-1" source="4NHkNy5tPfDzqego02Xz-0" target="XDleNwIrpBC4fumYxYCe-1" edge="1">
                    <mxGeometry relative="1" as="geometry"/>
                </mxCell>
                <mxCell id="4NHkNy5tPfDzqego02Xz-0" value="&lt;font style=&quot;font-size: 18px;&quot;&gt;Data Partitioning&lt;/font&gt;" style="rounded=0;whiteSpace=wrap;html=1;fillColor=#fff2cc;strokeColor=#d6b656;shadow=0;glass=0;" parent="nuFoWLF7ntMRhejHpa03-1" vertex="1">
                    <mxGeometry x="900" y="220" width="120" height="60" as="geometry"/>
                </mxCell>
                <mxCell id="XDleNwIrpBC4fumYxYCe-2" style="edgeStyle=none;html=1;exitX=0.5;exitY=1;exitDx=0;exitDy=0;entryX=0.5;entryY=0;entryDx=0;entryDy=0;" parent="nuFoWLF7ntMRhejHpa03-1" source="4NHkNy5tPfDzqego02Xz-1" target="4NHkNy5tPfDzqego02Xz-0" edge="1">
                    <mxGeometry relative="1" as="geometry"/>
                </mxCell>
                <mxCell id="4NHkNy5tPfDzqego02Xz-1" value="&lt;font style=&quot;font-size: 18px;&quot;&gt;Aggregated Dataset&lt;/font&gt;" style="rounded=1;whiteSpace=wrap;html=1;fillColor=#f8cecc;strokeColor=#b85450;" parent="nuFoWLF7ntMRhejHpa03-1" vertex="1">
                    <mxGeometry x="900" y="120" width="120" height="60" as="geometry"/>
                </mxCell>
                <mxCell id="ECqnu8eqxSiFNILggUYV-4" style="edgeStyle=none;html=1;exitX=0.5;exitY=1;exitDx=0;exitDy=0;" parent="nuFoWLF7ntMRhejHpa03-1" source="XDleNwIrpBC4fumYxYCe-1" target="XDleNwIrpBC4fumYxYCe-5" edge="1">
                    <mxGeometry relative="1" as="geometry"/>
                </mxCell>
                <mxCell id="XDleNwIrpBC4fumYxYCe-1" value="&lt;font style=&quot;font-size: 18px;&quot;&gt;Training Set&lt;/font&gt;" style="rounded=1;whiteSpace=wrap;html=1;fillColor=#d5e8d4;strokeColor=#82b366;" parent="nuFoWLF7ntMRhejHpa03-1" vertex="1">
                    <mxGeometry x="1017.5" y="320" width="120" height="60" as="geometry"/>
                </mxCell>
                <mxCell id="ECqnu8eqxSiFNILggUYV-3" style="edgeStyle=none;html=1;exitX=0.5;exitY=1;exitDx=0;exitDy=0;entryX=0.5;entryY=0;entryDx=0;entryDy=0;" parent="nuFoWLF7ntMRhejHpa03-1" source="XDleNwIrpBC4fumYxYCe-5" target="xOQpbovY5DG41NrH_mv0-0" edge="1">
                    <mxGeometry relative="1" as="geometry"/>
                </mxCell>
                <mxCell id="XDleNwIrpBC4fumYxYCe-5" value="&lt;font style=&quot;font-size: 18px;&quot;&gt;Imbalance Handling&lt;/font&gt;" style="rounded=0;whiteSpace=wrap;html=1;fillColor=#fff2cc;strokeColor=#d6b656;" parent="nuFoWLF7ntMRhejHpa03-1" vertex="1">
                    <mxGeometry x="1017.5" y="410" width="120" height="60" as="geometry"/>
                </mxCell>
                <mxCell id="ECqnu8eqxSiFNILggUYV-6" style="edgeStyle=none;html=1;exitX=0.5;exitY=1;exitDx=0;exitDy=0;entryX=0.5;entryY=0;entryDx=0;entryDy=0;" parent="nuFoWLF7ntMRhejHpa03-1" source="xOQpbovY5DG41NrH_mv0-0" target="ECqnu8eqxSiFNILggUYV-5" edge="1">
                    <mxGeometry relative="1" as="geometry"/>
                </mxCell>
                <mxCell id="6PdX3UHOtiKW7pyZz6Wf-21" style="edgeStyle=none;html=1;exitX=0;exitY=0.5;exitDx=0;exitDy=0;" parent="nuFoWLF7ntMRhejHpa03-1" source="xOQpbovY5DG41NrH_mv0-0" edge="1">
                    <mxGeometry relative="1" as="geometry">
                        <mxPoint x="870" y="530" as="targetPoint"/>
                    </mxGeometry>
                </mxCell>
                <mxCell id="xOQpbovY5DG41NrH_mv0-0" value="&lt;span style=&quot;font-size: 18px;&quot;&gt;Principal Component Analysis&lt;/span&gt;" style="shape=process;whiteSpace=wrap;html=1;backgroundOutline=1;fillColor=#ffe6cc;strokeColor=#d79b00;" parent="nuFoWLF7ntMRhejHpa03-1" vertex="1">
                    <mxGeometry x="970" y="500" width="215" height="60" as="geometry"/>
                </mxCell>
                <mxCell id="6PdX3UHOtiKW7pyZz6Wf-24" style="edgeStyle=none;html=1;exitX=1;exitY=0.5;exitDx=0;exitDy=0;entryX=0;entryY=0.5;entryDx=0;entryDy=0;" parent="nuFoWLF7ntMRhejHpa03-1" source="ECqnu8eqxSiFNILggUYV-5" target="ECqnu8eqxSiFNILggUYV-7" edge="1">
                    <mxGeometry relative="1" as="geometry">
                        <Array as="points">
                            <mxPoint x="1210" y="620"/>
                            <mxPoint x="1210" y="150"/>
                        </Array>
                    </mxGeometry>
                </mxCell>
                <mxCell id="ECqnu8eqxSiFNILggUYV-5" value="&lt;font style=&quot;font-size: 18px;&quot;&gt;Transformed Training Data&lt;/font&gt;" style="rounded=1;whiteSpace=wrap;html=1;fillColor=#d5e8d4;strokeColor=#82b366;" parent="nuFoWLF7ntMRhejHpa03-1" vertex="1">
                    <mxGeometry x="1017.5" y="590" width="120" height="60" as="geometry"/>
                </mxCell>
                <mxCell id="ECqnu8eqxSiFNILggUYV-7" value="&lt;span style=&quot;font-size: 18px;&quot;&gt;Deep Learning Classification&lt;/span&gt;" style="shape=process;whiteSpace=wrap;html=1;backgroundOutline=1;fillColor=#ffe6cc;strokeColor=#d79b00;" parent="nuFoWLF7ntMRhejHpa03-1" vertex="1">
                    <mxGeometry x="1240" y="120" width="215" height="60" as="geometry"/>
                </mxCell>
                <mxCell id="ECqnu8eqxSiFNILggUYV-8" value="&lt;span style=&quot;font-size: 18px;&quot;&gt;Feature Importance Analysis&lt;/span&gt;" style="shape=process;whiteSpace=wrap;html=1;backgroundOutline=1;fillColor=#ffe6cc;strokeColor=#d79b00;" parent="nuFoWLF7ntMRhejHpa03-1" vertex="1">
                    <mxGeometry x="1240" y="690" width="215" height="60" as="geometry"/>
                </mxCell>
                <mxCell id="6PdX3UHOtiKW7pyZz6Wf-20" style="edgeStyle=none;html=1;exitX=0.5;exitY=1;exitDx=0;exitDy=0;entryX=0.5;entryY=0;entryDx=0;entryDy=0;" parent="nuFoWLF7ntMRhejHpa03-1" source="Y4YnXaoWic6sforbAB5M-0" target="Y4YnXaoWic6sforbAB5M-1" edge="1">
                    <mxGeometry relative="1" as="geometry"/>
                </mxCell>
                <mxCell id="Y4YnXaoWic6sforbAB5M-0" value="&lt;font style=&quot;font-size: 18px;&quot;&gt;Test Set&lt;/font&gt;" style="rounded=1;whiteSpace=wrap;html=1;fillColor=#dae8fc;strokeColor=#6c8ebf;" parent="nuFoWLF7ntMRhejHpa03-1" vertex="1">
                    <mxGeometry x="810" y="320" width="120" height="60" as="geometry"/>
                </mxCell>
                <mxCell id="mj_ESQsJM1upDVN6lyhj-2" style="edgeStyle=none;html=1;exitX=0.5;exitY=1;exitDx=0;exitDy=0;entryX=0;entryY=0.5;entryDx=0;entryDy=0;" edge="1" parent="nuFoWLF7ntMRhejHpa03-1" source="Y4YnXaoWic6sforbAB5M-1" target="nuFoWLF7ntMRhejHpa03-40">
                    <mxGeometry relative="1" as="geometry">
                        <Array as="points">
                            <mxPoint x="870" y="680"/>
                            <mxPoint x="1240" y="680"/>
                            <mxPoint x="1240" y="530"/>
                        </Array>
                    </mxGeometry>
                </mxCell>
                <mxCell id="Y4YnXaoWic6sforbAB5M-1" value="&lt;font style=&quot;font-size: 18px;&quot;&gt;Projected Test Data&lt;/font&gt;" style="rounded=1;whiteSpace=wrap;html=1;fillColor=#dae8fc;strokeColor=#6c8ebf;" parent="nuFoWLF7ntMRhejHpa03-1" vertex="1">
                    <mxGeometry x="810" y="590" width="120" height="60" as="geometry"/>
                </mxCell>
                <mxCell id="6PdX3UHOtiKW7pyZz6Wf-5" style="edgeStyle=none;html=1;exitX=0.5;exitY=1;exitDx=0;exitDy=0;entryX=0.5;entryY=0;entryDx=0;entryDy=0;" parent="nuFoWLF7ntMRhejHpa03-1" source="6PdX3UHOtiKW7pyZz6Wf-2" target="6PdX3UHOtiKW7pyZz6Wf-3" edge="1">
                    <mxGeometry relative="1" as="geometry"/>
                </mxCell>
                <mxCell id="6PdX3UHOtiKW7pyZz6Wf-2" value="&lt;font style=&quot;font-size: 18px;&quot;&gt;Training&lt;/font&gt;" style="rounded=0;whiteSpace=wrap;html=1;fillColor=#fff2cc;strokeColor=#d6b656;" parent="nuFoWLF7ntMRhejHpa03-1" vertex="1">
                    <mxGeometry x="1287.5" y="230" width="120" height="60" as="geometry"/>
                </mxCell>
                <mxCell id="6PdX3UHOtiKW7pyZz6Wf-6" style="edgeStyle=none;html=1;exitX=0.5;exitY=1;exitDx=0;exitDy=0;" parent="nuFoWLF7ntMRhejHpa03-1" source="6PdX3UHOtiKW7pyZz6Wf-3" target="6PdX3UHOtiKW7pyZz6Wf-4" edge="1">
                    <mxGeometry relative="1" as="geometry"/>
                </mxCell>
                <mxCell id="6PdX3UHOtiKW7pyZz6Wf-3" value="&lt;span style=&quot;font-size: 18px;&quot;&gt;Cross Validation&lt;/span&gt;" style="rounded=0;whiteSpace=wrap;html=1;fillColor=#fff2cc;strokeColor=#d6b656;" parent="nuFoWLF7ntMRhejHpa03-1" vertex="1">
                    <mxGeometry x="1287.5" y="320" width="120" height="60" as="geometry"/>
                </mxCell>
                <mxCell id="mj_ESQsJM1upDVN6lyhj-0" style="edgeStyle=none;html=1;exitX=1;exitY=0.5;exitDx=0;exitDy=0;entryX=1;entryY=0.5;entryDx=0;entryDy=0;" edge="1" parent="nuFoWLF7ntMRhejHpa03-1" source="6PdX3UHOtiKW7pyZz6Wf-4" target="6PdX3UHOtiKW7pyZz6Wf-2">
                    <mxGeometry relative="1" as="geometry">
                        <Array as="points">
                            <mxPoint x="1460" y="440"/>
                            <mxPoint x="1460" y="260"/>
                        </Array>
                    </mxGeometry>
                </mxCell>
                <mxCell id="mj_ESQsJM1upDVN6lyhj-1" style="edgeStyle=none;html=1;exitX=0.5;exitY=1;exitDx=0;exitDy=0;entryX=0.5;entryY=0;entryDx=0;entryDy=0;" edge="1" parent="nuFoWLF7ntMRhejHpa03-1" source="6PdX3UHOtiKW7pyZz6Wf-4" target="nuFoWLF7ntMRhejHpa03-40">
                    <mxGeometry relative="1" as="geometry"/>
                </mxCell>
                <mxCell id="6PdX3UHOtiKW7pyZz6Wf-4" value="&lt;span style=&quot;font-size: 18px;&quot;&gt;Bayesian Optimisation&lt;/span&gt;" style="rounded=0;whiteSpace=wrap;html=1;fillColor=#fff2cc;strokeColor=#d6b656;" parent="nuFoWLF7ntMRhejHpa03-1" vertex="1">
                    <mxGeometry x="1271.25" y="410" width="152.5" height="60" as="geometry"/>
                </mxCell>
                <mxCell id="6PdX3UHOtiKW7pyZz6Wf-23" value="&lt;font style=&quot;font-size: 18px;&quot;&gt;Project&lt;/font&gt;" style="text;html=1;align=center;verticalAlign=middle;whiteSpace=wrap;rounded=0;" parent="nuFoWLF7ntMRhejHpa03-1" vertex="1">
                    <mxGeometry x="890" y="500" width="60" height="30" as="geometry"/>
                </mxCell>
                <mxCell id="pstDxix02JmBtCDwMcPG-2" style="edgeStyle=none;html=1;exitX=0.5;exitY=1;exitDx=0;exitDy=0;" parent="nuFoWLF7ntMRhejHpa03-1" source="pstDxix02JmBtCDwMcPG-0" target="ECqnu8eqxSiFNILggUYV-8" edge="1">
                    <mxGeometry relative="1" as="geometry"/>
                </mxCell>
                <mxCell id="pstDxix02JmBtCDwMcPG-0" value="&lt;font style=&quot;font-size: 18px;&quot;&gt;Best Performed Models&lt;/font&gt;" style="rounded=1;whiteSpace=wrap;html=1;fillColor=#f8cecc;strokeColor=#b85450;" parent="nuFoWLF7ntMRhejHpa03-1" vertex="1">
                    <mxGeometry x="1287.5" y="590" width="120" height="60" as="geometry"/>
                </mxCell>
                <mxCell id="wthu-vY0IZ1vQrV3Q29s-0" value="" style="shape=flexArrow;endArrow=classic;html=1;" parent="nuFoWLF7ntMRhejHpa03-1" edge="1">
                    <mxGeometry width="50" height="50" relative="1" as="geometry">
                        <mxPoint x="1347" y="180" as="sourcePoint"/>
                        <mxPoint x="1347.5" y="215" as="targetPoint"/>
                    </mxGeometry>
                </mxCell>
            </root>
        </mxGraphModel>
    </diagram>
    <diagram id="ysGOHFIA5wTkqiv6qoU8" name="Feature Engineering">
        <mxGraphModel dx="604" dy="779" grid="1" gridSize="10" guides="1" tooltips="1" connect="1" arrows="1" fold="1" page="1" pageScale="1" pageWidth="850" pageHeight="1100" math="0" shadow="0">
            <root>
                <mxCell id="0"/>
                <mxCell id="1" parent="0"/>
                <mxCell id="efgE0I3yCW_6r942Hq-W-1" value="&lt;font style=&quot;font-size: 18px;&quot;&gt;Raw Sensor Data&lt;/font&gt;" style="rounded=1;whiteSpace=wrap;html=1;fillColor=#d5e8d4;strokeColor=#82b366;" parent="1" vertex="1">
                    <mxGeometry x="364" y="400" width="120" height="60" as="geometry"/>
                </mxCell>
                <mxCell id="efgE0I3yCW_6r942Hq-W-10" value="&lt;font style=&quot;font-size: 18px;&quot;&gt;Reconstruction&lt;/font&gt;" style="shape=process;whiteSpace=wrap;html=1;backgroundOutline=1;fillColor=#ffe6cc;strokeColor=#d79b00;" parent="1" vertex="1">
                    <mxGeometry x="325" y="510" width="190" height="60" as="geometry"/>
                </mxCell>
                <mxCell id="efgE0I3yCW_6r942Hq-W-11" value="&lt;font style=&quot;font-size: 18px;&quot;&gt;Alpha Opics&lt;/font&gt;" style="rounded=1;whiteSpace=wrap;html=1;fillColor=#d5e8d4;strokeColor=#82b366;" parent="1" vertex="1">
                    <mxGeometry x="570" y="470" width="120" height="60" as="geometry"/>
                </mxCell>
                <mxCell id="efgE0I3yCW_6r942Hq-W-12" value="&lt;font style=&quot;font-size: 18px;&quot;&gt;Visible SPD&lt;/font&gt;" style="rounded=1;whiteSpace=wrap;html=1;fillColor=#d5e8d4;strokeColor=#82b366;" parent="1" vertex="1">
                    <mxGeometry x="570" y="560" width="120" height="60" as="geometry"/>
                </mxCell>
                <mxCell id="efgE0I3yCW_6r942Hq-W-23" value="&lt;font style=&quot;font-size: 18px;&quot;&gt;L2 Normalisation&lt;/font&gt;" style="shape=process;whiteSpace=wrap;html=1;backgroundOutline=1;fillColor=#ffe6cc;strokeColor=#d79b00;" parent="1" vertex="1">
                    <mxGeometry x="325" y="719.5" width="190" height="60" as="geometry"/>
                </mxCell>
                <mxCell id="efgE0I3yCW_6r942Hq-W-25" value="&lt;font style=&quot;font-size: 18px;&quot;&gt;Light Vectors Without Intensity&lt;/font&gt;&lt;div&gt;&lt;font size=&quot;3&quot; style=&quot;&quot;&gt;&lt;i style=&quot;&quot;&gt;V&lt;sub style=&quot;&quot;&gt;Light&lt;/sub&gt;&lt;/i&gt;&lt;/font&gt;&lt;/div&gt;" style="rounded=1;whiteSpace=wrap;html=1;fillColor=#d5e8d4;strokeColor=#82b366;" parent="1" vertex="1">
                    <mxGeometry x="570" y="680" width="250" height="60" as="geometry"/>
                </mxCell>
                <mxCell id="efgE0I3yCW_6r942Hq-W-26" value="&lt;font style=&quot;font-size: 18px;&quot;&gt;Intensity&lt;/font&gt;" style="rounded=1;whiteSpace=wrap;html=1;fillColor=#e1d5e7;strokeColor=#9673a6;" parent="1" vertex="1">
                    <mxGeometry x="570" y="760" width="250" height="60" as="geometry"/>
                </mxCell>
                <mxCell id="efgE0I3yCW_6r942Hq-W-29" value="" style="shape=curlyBracket;whiteSpace=wrap;html=1;rounded=1;labelPosition=left;verticalLabelPosition=middle;align=right;verticalAlign=middle;" parent="1" vertex="1">
                    <mxGeometry x="530" y="480" width="20" height="120" as="geometry"/>
                </mxCell>
                <mxCell id="efgE0I3yCW_6r942Hq-W-35" value="" style="shape=curlyBracket;whiteSpace=wrap;html=1;rounded=1;labelPosition=left;verticalLabelPosition=middle;align=right;verticalAlign=middle;" parent="1" vertex="1">
                    <mxGeometry x="530" y="710" width="20" height="90" as="geometry"/>
                </mxCell>
                <mxCell id="efgE0I3yCW_6r942Hq-W-40" value="&lt;font style=&quot;font-size: 18px;&quot;&gt;Hourly Timestamp&lt;/font&gt;" style="rounded=1;whiteSpace=wrap;html=1;fillColor=#dae8fc;strokeColor=#6c8ebf;" parent="1" vertex="1">
                    <mxGeometry x="125" y="400" width="120" height="60" as="geometry"/>
                </mxCell>
                <mxCell id="efgE0I3yCW_6r942Hq-W-42" value="&lt;font style=&quot;font-size: 18px;&quot;&gt;Complex Circular Mapping&lt;/font&gt;" style="shape=process;whiteSpace=wrap;html=1;backgroundOutline=1;fillColor=#ffe6cc;strokeColor=#d79b00;" parent="1" vertex="1">
                    <mxGeometry x="90" y="510" width="190" height="60" as="geometry"/>
                </mxCell>
                <mxCell id="efgE0I3yCW_6r942Hq-W-45" value="&lt;font style=&quot;font-size: 18px;&quot;&gt;Time in Complex Domain&lt;/font&gt;" style="rounded=0;whiteSpace=wrap;html=1;fillColor=#dae8fc;strokeColor=#6c8ebf;" parent="1" vertex="1">
                    <mxGeometry x="102.5" y="620" width="165" height="60" as="geometry"/>
                </mxCell>
                <mxCell id="efgE0I3yCW_6r942Hq-W-46" value="&lt;span style=&quot;font-size: 18px;&quot;&gt;Euler&#39;s Formula&lt;/span&gt;" style="shape=process;whiteSpace=wrap;html=1;backgroundOutline=1;fillColor=#ffe6cc;strokeColor=#d79b00;" parent="1" vertex="1">
                    <mxGeometry x="90" y="720" width="190" height="60" as="geometry"/>
                </mxCell>
                <mxCell id="efgE0I3yCW_6r942Hq-W-47" value="&lt;span style=&quot;font-size: 18px;&quot;&gt;Time Vector&lt;/span&gt;&lt;div&gt;&lt;span style=&quot;font-size: 18px;&quot;&gt;&lt;i&gt;V&lt;sub&gt;t&lt;/sub&gt;&lt;/i&gt;&lt;/span&gt;&lt;/div&gt;" style="rounded=1;whiteSpace=wrap;html=1;fillColor=#e1d5e7;strokeColor=#9673a6;" parent="1" vertex="1">
                    <mxGeometry x="102.5" y="830" width="165" height="60" as="geometry"/>
                </mxCell>
                <mxCell id="efgE0I3yCW_6r942Hq-W-50" value="" style="shape=flexArrow;endArrow=classic;html=1;" parent="1" edge="1">
                    <mxGeometry width="50" height="50" relative="1" as="geometry">
                        <mxPoint x="184.5" y="580" as="sourcePoint"/>
                        <mxPoint x="185" y="615" as="targetPoint"/>
                    </mxGeometry>
                </mxCell>
                <mxCell id="efgE0I3yCW_6r942Hq-W-51" value="" style="shape=flexArrow;endArrow=classic;html=1;" parent="1" edge="1">
                    <mxGeometry width="50" height="50" relative="1" as="geometry">
                        <mxPoint x="184.5" y="682.5" as="sourcePoint"/>
                        <mxPoint x="185" y="717.5" as="targetPoint"/>
                    </mxGeometry>
                </mxCell>
                <mxCell id="efgE0I3yCW_6r942Hq-W-52" value="" style="shape=flexArrow;endArrow=classic;html=1;" parent="1" edge="1">
                    <mxGeometry width="50" height="50" relative="1" as="geometry">
                        <mxPoint x="184.5" y="785" as="sourcePoint"/>
                        <mxPoint x="185" y="820" as="targetPoint"/>
                    </mxGeometry>
                </mxCell>
                <mxCell id="efgE0I3yCW_6r942Hq-W-53" value="&lt;font style=&quot;font-size: 18px;&quot;&gt;Analysis Ready Features: {&lt;i style=&quot;color: rgb(63, 63, 63);&quot;&gt;V&lt;sub&gt;t&lt;/sub&gt;&lt;/i&gt;, &lt;i style=&quot;color: rgb(63, 63, 63);&quot;&gt;V&lt;sub&gt;Light&lt;/sub&gt;&lt;/i&gt;, &lt;span style=&quot;color: rgb(63, 63, 63);&quot;&gt;Intensity}&lt;/span&gt;&lt;/font&gt;" style="rounded=1;whiteSpace=wrap;html=1;fillColor=#f8cecc;strokeColor=#b85450;" parent="1" vertex="1">
                    <mxGeometry x="310" y="830" width="510" height="60" as="geometry"/>
                </mxCell>
                <mxCell id="oXFzseeMNpb1qxejEidS-3" value="" style="shape=flexArrow;endArrow=classic;html=1;" parent="1" edge="1">
                    <mxGeometry width="50" height="50" relative="1" as="geometry">
                        <mxPoint x="419.5" y="580" as="sourcePoint"/>
                        <mxPoint x="420" y="615" as="targetPoint"/>
                    </mxGeometry>
                </mxCell>
                <mxCell id="oXFzseeMNpb1qxejEidS-4" value="" style="shape=flexArrow;endArrow=classic;html=1;" parent="1" edge="1">
                    <mxGeometry width="50" height="50" relative="1" as="geometry">
                        <mxPoint x="419.5" y="682.5" as="sourcePoint"/>
                        <mxPoint x="420" y="717.5" as="targetPoint"/>
                    </mxGeometry>
                </mxCell>
                <mxCell id="oXFzseeMNpb1qxejEidS-5" value="&lt;font style=&quot;font-size: 18px;&quot;&gt;Logarithmic Transformation&lt;/font&gt;" style="shape=process;whiteSpace=wrap;html=1;backgroundOutline=1;fillColor=#ffe6cc;strokeColor=#d79b00;" parent="1" vertex="1">
                    <mxGeometry x="325" y="620" width="190" height="60" as="geometry"/>
                </mxCell>
                <mxCell id="OP0mE6RPt88N3sbomMEL-1" value="" style="shape=flexArrow;endArrow=classic;html=1;" parent="1" edge="1">
                    <mxGeometry width="50" height="50" relative="1" as="geometry">
                        <mxPoint x="184.5" y="470" as="sourcePoint"/>
                        <mxPoint x="185" y="505" as="targetPoint"/>
                    </mxGeometry>
                </mxCell>
                <mxCell id="OP0mE6RPt88N3sbomMEL-2" value="" style="shape=flexArrow;endArrow=classic;html=1;" parent="1" edge="1">
                    <mxGeometry width="50" height="50" relative="1" as="geometry">
                        <mxPoint x="425" y="470" as="sourcePoint"/>
                        <mxPoint x="425.5" y="505" as="targetPoint"/>
                    </mxGeometry>
                </mxCell>
            </root>
        </mxGraphModel>
    </diagram>
    <diagram name="Copy of Copy of Page-1" id="s7-faa6GcD-_cLaQ85ai">
        <mxGraphModel dx="604" dy="779" grid="1" gridSize="10" guides="1" tooltips="1" connect="1" arrows="1" fold="1" page="1" pageScale="1" pageWidth="850" pageHeight="1100" math="0" shadow="0">
            <root>
                <mxCell id="ZI_c8G1m_tDhfsDiSz1y-0"/>
                <mxCell id="ZI_c8G1m_tDhfsDiSz1y-1" parent="ZI_c8G1m_tDhfsDiSz1y-0"/>
                <mxCell id="ZI_c8G1m_tDhfsDiSz1y-2" style="edgeStyle=none;html=1;exitX=0.5;exitY=1;exitDx=0;exitDy=0;" parent="ZI_c8G1m_tDhfsDiSz1y-1" source="ZI_c8G1m_tDhfsDiSz1y-3" target="ZI_c8G1m_tDhfsDiSz1y-7" edge="1">
                    <mxGeometry relative="1" as="geometry"/>
                </mxCell>
                <mxCell id="ZI_c8G1m_tDhfsDiSz1y-3" value="&lt;font style=&quot;font-size: 18px;&quot;&gt;Raw Sensor Data&lt;/font&gt;" style="rounded=1;whiteSpace=wrap;html=1;fillColor=#d5e8d4;strokeColor=#82b366;" parent="ZI_c8G1m_tDhfsDiSz1y-1" vertex="1">
                    <mxGeometry x="760" y="270" width="120" height="60" as="geometry"/>
                </mxCell>
                <mxCell id="ZI_c8G1m_tDhfsDiSz1y-4" style="edgeStyle=none;html=1;exitX=0.5;exitY=1;exitDx=0;exitDy=0;" parent="ZI_c8G1m_tDhfsDiSz1y-1" source="ZI_c8G1m_tDhfsDiSz1y-5" target="ZI_c8G1m_tDhfsDiSz1y-9" edge="1">
                    <mxGeometry relative="1" as="geometry"/>
                </mxCell>
                <mxCell id="ZI_c8G1m_tDhfsDiSz1y-5" value="&lt;font style=&quot;font-size: 18px;&quot;&gt;Behavioural Data&lt;/font&gt;" style="rounded=1;whiteSpace=wrap;html=1;fillColor=#dae8fc;strokeColor=#6c8ebf;" parent="ZI_c8G1m_tDhfsDiSz1y-1" vertex="1">
                    <mxGeometry x="950" y="270" width="120" height="60" as="geometry"/>
                </mxCell>
                <mxCell id="ZI_c8G1m_tDhfsDiSz1y-6" style="edgeStyle=none;html=1;exitX=0.5;exitY=1;exitDx=0;exitDy=0;entryX=0.5;entryY=0;entryDx=0;entryDy=0;" parent="ZI_c8G1m_tDhfsDiSz1y-1" source="ZI_c8G1m_tDhfsDiSz1y-7" target="ZI_c8G1m_tDhfsDiSz1y-14" edge="1">
                    <mxGeometry relative="1" as="geometry"/>
                </mxCell>
                <mxCell id="ZI_c8G1m_tDhfsDiSz1y-7" value="&lt;font style=&quot;font-size: 18px;&quot;&gt;Preprocessing&lt;/font&gt;" style="rounded=0;whiteSpace=wrap;html=1;fillColor=#fff2cc;strokeColor=#d6b656;" parent="ZI_c8G1m_tDhfsDiSz1y-1" vertex="1">
                    <mxGeometry x="760" y="400" width="120" height="60" as="geometry"/>
                </mxCell>
                <mxCell id="ZI_c8G1m_tDhfsDiSz1y-8" style="edgeStyle=none;html=1;exitX=0.5;exitY=1;exitDx=0;exitDy=0;entryX=0.5;entryY=0;entryDx=0;entryDy=0;" parent="ZI_c8G1m_tDhfsDiSz1y-1" source="ZI_c8G1m_tDhfsDiSz1y-9" target="ZI_c8G1m_tDhfsDiSz1y-12" edge="1">
                    <mxGeometry relative="1" as="geometry"/>
                </mxCell>
                <mxCell id="ZI_c8G1m_tDhfsDiSz1y-9" value="&lt;font style=&quot;font-size: 18px;&quot;&gt;Preprocessing&lt;/font&gt;" style="rounded=0;whiteSpace=wrap;html=1;fillColor=#e1d5e7;strokeColor=#9673a6;" parent="ZI_c8G1m_tDhfsDiSz1y-1" vertex="1">
                    <mxGeometry x="950" y="400" width="120" height="60" as="geometry"/>
                </mxCell>
                <mxCell id="ZI_c8G1m_tDhfsDiSz1y-10" value="" style="shape=curlyBracket;whiteSpace=wrap;html=1;rounded=1;labelPosition=left;verticalLabelPosition=middle;align=right;verticalAlign=middle;" parent="ZI_c8G1m_tDhfsDiSz1y-1" vertex="1">
                    <mxGeometry x="1100" y="370" width="20" height="120" as="geometry"/>
                </mxCell>
                <mxCell id="ZI_c8G1m_tDhfsDiSz1y-11" style="edgeStyle=none;html=1;exitX=0.5;exitY=1;exitDx=0;exitDy=0;entryX=0.5;entryY=0;entryDx=0;entryDy=0;" parent="ZI_c8G1m_tDhfsDiSz1y-1" source="ZI_c8G1m_tDhfsDiSz1y-12" target="ZI_c8G1m_tDhfsDiSz1y-27" edge="1">
                    <mxGeometry relative="1" as="geometry"/>
                </mxCell>
                <mxCell id="ZI_c8G1m_tDhfsDiSz1y-12" value="&lt;font style=&quot;font-size: 18px;&quot;&gt;Label Generation&lt;/font&gt;" style="rounded=0;whiteSpace=wrap;html=1;fillColor=#e1d5e7;strokeColor=#9673a6;" parent="ZI_c8G1m_tDhfsDiSz1y-1" vertex="1">
                    <mxGeometry x="950" y="520" width="120" height="60" as="geometry"/>
                </mxCell>
                <mxCell id="ZI_c8G1m_tDhfsDiSz1y-13" style="edgeStyle=none;html=1;exitX=0.5;exitY=1;exitDx=0;exitDy=0;entryX=0.5;entryY=0;entryDx=0;entryDy=0;" parent="ZI_c8G1m_tDhfsDiSz1y-1" source="ZI_c8G1m_tDhfsDiSz1y-14" edge="1">
                    <mxGeometry relative="1" as="geometry">
                        <mxPoint x="820" y="620" as="targetPoint"/>
                    </mxGeometry>
                </mxCell>
                <mxCell id="ZI_c8G1m_tDhfsDiSz1y-14" value="&lt;font style=&quot;font-size: 18px;&quot;&gt;Feature Engineering&lt;/font&gt;" style="rounded=0;whiteSpace=wrap;html=1;fillColor=#fff2cc;strokeColor=#d6b656;" parent="ZI_c8G1m_tDhfsDiSz1y-1" vertex="1">
                    <mxGeometry x="760" y="520" width="120" height="60" as="geometry"/>
                </mxCell>
                <mxCell id="ZI_c8G1m_tDhfsDiSz1y-15" style="edgeStyle=none;html=1;exitX=0.5;exitY=1;exitDx=0;exitDy=0;entryX=0.5;entryY=0;entryDx=0;entryDy=0;" parent="ZI_c8G1m_tDhfsDiSz1y-1" source="ZI_c8G1m_tDhfsDiSz1y-18" target="ZI_c8G1m_tDhfsDiSz1y-46" edge="1">
                    <mxGeometry relative="1" as="geometry"/>
                </mxCell>
                <mxCell id="ZI_c8G1m_tDhfsDiSz1y-16" value="&lt;font style=&quot;font-size: 18px;&quot;&gt;Project&lt;/font&gt;" style="edgeLabel;html=1;align=center;verticalAlign=middle;resizable=0;points=[];" parent="ZI_c8G1m_tDhfsDiSz1y-15" vertex="1" connectable="0">
                    <mxGeometry x="-0.1" y="1" relative="1" as="geometry">
                        <mxPoint as="offset"/>
                    </mxGeometry>
                </mxCell>
                <mxCell id="ZI_c8G1m_tDhfsDiSz1y-17" style="edgeStyle=none;html=1;exitX=1;exitY=0.5;exitDx=0;exitDy=0;entryX=1;entryY=0.5;entryDx=0;entryDy=0;" parent="ZI_c8G1m_tDhfsDiSz1y-1" source="ZI_c8G1m_tDhfsDiSz1y-18" target="ZI_c8G1m_tDhfsDiSz1y-50" edge="1">
                    <mxGeometry relative="1" as="geometry">
                        <Array as="points">
                            <mxPoint x="1490" y="650"/>
                            <mxPoint x="1490" y="470"/>
                        </Array>
                    </mxGeometry>
                </mxCell>
                <mxCell id="ZI_c8G1m_tDhfsDiSz1y-18" value="&lt;font style=&quot;font-size: 18px;&quot;&gt;Dimension Reduction&lt;/font&gt;" style="rounded=0;whiteSpace=wrap;html=1;fillColor=#ffe6cc;strokeColor=#d79b00;" parent="ZI_c8G1m_tDhfsDiSz1y-1" vertex="1">
                    <mxGeometry x="1335" y="620" width="120" height="60" as="geometry"/>
                </mxCell>
                <mxCell id="ZI_c8G1m_tDhfsDiSz1y-19" style="edgeStyle=none;html=1;exitX=0.5;exitY=1;exitDx=0;exitDy=0;" parent="ZI_c8G1m_tDhfsDiSz1y-1" source="ZI_c8G1m_tDhfsDiSz1y-20" target="ZI_c8G1m_tDhfsDiSz1y-18" edge="1">
                    <mxGeometry relative="1" as="geometry"/>
                </mxCell>
                <mxCell id="ZI_c8G1m_tDhfsDiSz1y-20" value="&lt;font style=&quot;font-size: 18px;&quot;&gt;Imbalance Handelling&lt;/font&gt;" style="rounded=0;whiteSpace=wrap;html=1;fillColor=#ffe6cc;strokeColor=#d79b00;" parent="ZI_c8G1m_tDhfsDiSz1y-1" vertex="1">
                    <mxGeometry x="1335" y="530" width="120" height="60" as="geometry"/>
                </mxCell>
                <mxCell id="ZI_c8G1m_tDhfsDiSz1y-21" style="edgeStyle=none;html=1;exitX=0.5;exitY=1;exitDx=0;exitDy=0;entryX=0.5;entryY=0;entryDx=0;entryDy=0;" parent="ZI_c8G1m_tDhfsDiSz1y-1" source="ZI_c8G1m_tDhfsDiSz1y-23" target="ZI_c8G1m_tDhfsDiSz1y-44" edge="1">
                    <mxGeometry relative="1" as="geometry"/>
                </mxCell>
                <mxCell id="ZI_c8G1m_tDhfsDiSz1y-22" style="edgeStyle=none;html=1;exitX=0.5;exitY=0;exitDx=0;exitDy=0;entryX=0.5;entryY=1;entryDx=0;entryDy=0;" parent="ZI_c8G1m_tDhfsDiSz1y-1" source="ZI_c8G1m_tDhfsDiSz1y-23" target="ZI_c8G1m_tDhfsDiSz1y-42" edge="1">
                    <mxGeometry relative="1" as="geometry"/>
                </mxCell>
                <mxCell id="ZI_c8G1m_tDhfsDiSz1y-23" value="&lt;font style=&quot;font-size: 18px;&quot;&gt;Data Partitioning&lt;/font&gt;" style="rounded=0;whiteSpace=wrap;html=1;fillColor=#ffe6cc;strokeColor=#d79b00;" parent="ZI_c8G1m_tDhfsDiSz1y-1" vertex="1">
                    <mxGeometry x="1150" y="620" width="120" height="60" as="geometry"/>
                </mxCell>
                <mxCell id="ZI_c8G1m_tDhfsDiSz1y-24" style="edgeStyle=none;html=1;exitX=1;exitY=0.5;exitDx=0;exitDy=0;entryX=0;entryY=0.5;entryDx=0;entryDy=0;" parent="ZI_c8G1m_tDhfsDiSz1y-1" source="ZI_c8G1m_tDhfsDiSz1y-25" target="ZI_c8G1m_tDhfsDiSz1y-27" edge="1">
                    <mxGeometry relative="1" as="geometry"/>
                </mxCell>
                <mxCell id="ZI_c8G1m_tDhfsDiSz1y-25" value="&lt;font style=&quot;font-size: 18px;&quot;&gt;Feature Aggregation&lt;/font&gt;" style="rounded=0;whiteSpace=wrap;html=1;fillColor=#fff2cc;strokeColor=#d6b656;" parent="ZI_c8G1m_tDhfsDiSz1y-1" vertex="1">
                    <mxGeometry x="760" y="620" width="120" height="60" as="geometry"/>
                </mxCell>
                <mxCell id="ZI_c8G1m_tDhfsDiSz1y-26" style="edgeStyle=none;html=1;exitX=1;exitY=0.5;exitDx=0;exitDy=0;entryX=0;entryY=0.5;entryDx=0;entryDy=0;" parent="ZI_c8G1m_tDhfsDiSz1y-1" source="ZI_c8G1m_tDhfsDiSz1y-27" target="ZI_c8G1m_tDhfsDiSz1y-23" edge="1">
                    <mxGeometry relative="1" as="geometry"/>
                </mxCell>
                <mxCell id="ZI_c8G1m_tDhfsDiSz1y-27" value="&lt;font style=&quot;font-size: 18px;&quot;&gt;Temporal Alignment&lt;/font&gt;" style="rounded=0;whiteSpace=wrap;html=1;fillColor=#f8cecc;strokeColor=#b85450;" parent="ZI_c8G1m_tDhfsDiSz1y-1" vertex="1">
                    <mxGeometry x="950" y="620" width="120" height="60" as="geometry"/>
                </mxCell>
                <mxCell id="ZI_c8G1m_tDhfsDiSz1y-28" value="&lt;font style=&quot;font-size: 18px;&quot;&gt;Timestamp Standardisation&lt;/font&gt;" style="rounded=0;whiteSpace=wrap;html=1;" parent="ZI_c8G1m_tDhfsDiSz1y-1" vertex="1">
                    <mxGeometry x="1150" y="360" width="130" height="60" as="geometry"/>
                </mxCell>
                <mxCell id="ZI_c8G1m_tDhfsDiSz1y-29" value="&lt;font style=&quot;font-size: 18px;&quot;&gt;Label Harmonisation&lt;/font&gt;" style="rounded=0;whiteSpace=wrap;html=1;" parent="ZI_c8G1m_tDhfsDiSz1y-1" vertex="1">
                    <mxGeometry x="1150" y="440" width="130" height="60" as="geometry"/>
                </mxCell>
                <mxCell id="ZI_c8G1m_tDhfsDiSz1y-30" style="edgeStyle=none;html=1;exitX=0.5;exitY=1;exitDx=0;exitDy=0;entryX=0.5;entryY=0;entryDx=0;entryDy=0;" parent="ZI_c8G1m_tDhfsDiSz1y-1" source="ZI_c8G1m_tDhfsDiSz1y-31" target="ZI_c8G1m_tDhfsDiSz1y-33" edge="1">
                    <mxGeometry relative="1" as="geometry"/>
                </mxCell>
                <mxCell id="ZI_c8G1m_tDhfsDiSz1y-31" value="&lt;font style=&quot;font-size: 18px;&quot;&gt;Basic Models&lt;/font&gt;" style="rounded=0;whiteSpace=wrap;html=1;fillColor=#ffe6cc;strokeColor=#d79b00;" parent="ZI_c8G1m_tDhfsDiSz1y-1" vertex="1">
                    <mxGeometry x="1530" y="160" width="120" height="60" as="geometry"/>
                </mxCell>
                <mxCell id="ZI_c8G1m_tDhfsDiSz1y-32" style="edgeStyle=none;html=1;exitX=0.5;exitY=1;exitDx=0;exitDy=0;" parent="ZI_c8G1m_tDhfsDiSz1y-1" source="ZI_c8G1m_tDhfsDiSz1y-33" target="ZI_c8G1m_tDhfsDiSz1y-37" edge="1">
                    <mxGeometry relative="1" as="geometry"/>
                </mxCell>
                <mxCell id="ZI_c8G1m_tDhfsDiSz1y-33" value="&lt;font style=&quot;font-size: 18px;&quot;&gt;Parallel Training &amp;amp; Hyper Tuning&lt;/font&gt;" style="rounded=0;whiteSpace=wrap;html=1;fillColor=#ffe6cc;strokeColor=#d79b00;" parent="ZI_c8G1m_tDhfsDiSz1y-1" vertex="1">
                    <mxGeometry x="1530" y="250" width="120" height="80" as="geometry"/>
                </mxCell>
                <mxCell id="ZI_c8G1m_tDhfsDiSz1y-34" style="edgeStyle=none;html=1;exitX=0.5;exitY=1;exitDx=0;exitDy=0;entryX=0.5;entryY=0;entryDx=0;entryDy=0;" parent="ZI_c8G1m_tDhfsDiSz1y-1" source="ZI_c8G1m_tDhfsDiSz1y-35" target="ZI_c8G1m_tDhfsDiSz1y-39" edge="1">
                    <mxGeometry relative="1" as="geometry"/>
                </mxCell>
                <mxCell id="ZI_c8G1m_tDhfsDiSz1y-35" value="&lt;font style=&quot;font-size: 18px;&quot;&gt;Stacked Ensemble&lt;/font&gt;" style="rounded=0;whiteSpace=wrap;html=1;fillColor=#f8cecc;strokeColor=#b85450;" parent="ZI_c8G1m_tDhfsDiSz1y-1" vertex="1">
                    <mxGeometry x="1530" y="440" width="120" height="60" as="geometry"/>
                </mxCell>
                <mxCell id="ZI_c8G1m_tDhfsDiSz1y-36" style="edgeStyle=none;html=1;exitX=0.5;exitY=1;exitDx=0;exitDy=0;" parent="ZI_c8G1m_tDhfsDiSz1y-1" source="ZI_c8G1m_tDhfsDiSz1y-37" target="ZI_c8G1m_tDhfsDiSz1y-35" edge="1">
                    <mxGeometry relative="1" as="geometry"/>
                </mxCell>
                <mxCell id="ZI_c8G1m_tDhfsDiSz1y-37" value="&lt;font style=&quot;font-size: 18px;&quot;&gt;Trained Models&lt;/font&gt;" style="rounded=1;whiteSpace=wrap;html=1;fillColor=#ffe6cc;strokeColor=#d79b00;" parent="ZI_c8G1m_tDhfsDiSz1y-1" vertex="1">
                    <mxGeometry x="1530" y="360" width="120" height="60" as="geometry"/>
                </mxCell>
                <mxCell id="ZI_c8G1m_tDhfsDiSz1y-38" style="edgeStyle=none;html=1;exitX=0.5;exitY=1;exitDx=0;exitDy=0;" parent="ZI_c8G1m_tDhfsDiSz1y-1" source="ZI_c8G1m_tDhfsDiSz1y-39" target="ZI_c8G1m_tDhfsDiSz1y-48" edge="1">
                    <mxGeometry relative="1" as="geometry"/>
                </mxCell>
                <mxCell id="ZI_c8G1m_tDhfsDiSz1y-39" value="&lt;font style=&quot;font-size: 18px;&quot;&gt;Training &amp;amp; Hyper Tuning&lt;/font&gt;" style="rounded=0;whiteSpace=wrap;html=1;fillColor=#ffe6cc;strokeColor=#d79b00;" parent="ZI_c8G1m_tDhfsDiSz1y-1" vertex="1">
                    <mxGeometry x="1530" y="530" width="120" height="60" as="geometry"/>
                </mxCell>
                <mxCell id="ZI_c8G1m_tDhfsDiSz1y-40" value="&lt;font style=&quot;font-size: 18px;&quot;&gt;Evaluate &amp;amp; Validate&lt;/font&gt;" style="rounded=0;whiteSpace=wrap;html=1;fillColor=#f8cecc;strokeColor=#b85450;" parent="ZI_c8G1m_tDhfsDiSz1y-1" vertex="1">
                    <mxGeometry x="1530" y="720" width="120" height="60" as="geometry"/>
                </mxCell>
                <mxCell id="ZI_c8G1m_tDhfsDiSz1y-41" style="edgeStyle=none;html=1;exitX=1;exitY=0.5;exitDx=0;exitDy=0;" parent="ZI_c8G1m_tDhfsDiSz1y-1" source="ZI_c8G1m_tDhfsDiSz1y-42" target="ZI_c8G1m_tDhfsDiSz1y-20" edge="1">
                    <mxGeometry relative="1" as="geometry"/>
                </mxCell>
                <mxCell id="ZI_c8G1m_tDhfsDiSz1y-42" value="&lt;font style=&quot;font-size: 18px;&quot;&gt;Training Set&lt;/font&gt;" style="rounded=1;whiteSpace=wrap;html=1;fillColor=#d5e8d4;strokeColor=#82b366;" parent="ZI_c8G1m_tDhfsDiSz1y-1" vertex="1">
                    <mxGeometry x="1150" y="530" width="120" height="60" as="geometry"/>
                </mxCell>
                <mxCell id="ZI_c8G1m_tDhfsDiSz1y-43" style="edgeStyle=none;html=1;exitX=1;exitY=0.5;exitDx=0;exitDy=0;entryX=0;entryY=0.5;entryDx=0;entryDy=0;" parent="ZI_c8G1m_tDhfsDiSz1y-1" source="ZI_c8G1m_tDhfsDiSz1y-44" target="ZI_c8G1m_tDhfsDiSz1y-46" edge="1">
                    <mxGeometry relative="1" as="geometry"/>
                </mxCell>
                <mxCell id="ZI_c8G1m_tDhfsDiSz1y-44" value="&lt;font style=&quot;font-size: 18px;&quot;&gt;Test Set&lt;/font&gt;" style="rounded=1;whiteSpace=wrap;html=1;fillColor=#dae8fc;strokeColor=#6c8ebf;" parent="ZI_c8G1m_tDhfsDiSz1y-1" vertex="1">
                    <mxGeometry x="1150" y="720" width="120" height="60" as="geometry"/>
                </mxCell>
                <mxCell id="ZI_c8G1m_tDhfsDiSz1y-45" style="edgeStyle=none;html=1;exitX=1;exitY=0.5;exitDx=0;exitDy=0;entryX=0;entryY=0.5;entryDx=0;entryDy=0;" parent="ZI_c8G1m_tDhfsDiSz1y-1" source="ZI_c8G1m_tDhfsDiSz1y-46" target="ZI_c8G1m_tDhfsDiSz1y-40" edge="1">
                    <mxGeometry relative="1" as="geometry"/>
                </mxCell>
                <mxCell id="ZI_c8G1m_tDhfsDiSz1y-46" value="&lt;font style=&quot;font-size: 18px;&quot;&gt;Projected Test Data&lt;/font&gt;" style="rounded=1;whiteSpace=wrap;html=1;fillColor=#dae8fc;strokeColor=#6c8ebf;" parent="ZI_c8G1m_tDhfsDiSz1y-1" vertex="1">
                    <mxGeometry x="1335" y="720" width="120" height="60" as="geometry"/>
                </mxCell>
                <mxCell id="ZI_c8G1m_tDhfsDiSz1y-47" style="edgeStyle=none;html=1;exitX=0.5;exitY=1;exitDx=0;exitDy=0;" parent="ZI_c8G1m_tDhfsDiSz1y-1" source="ZI_c8G1m_tDhfsDiSz1y-48" target="ZI_c8G1m_tDhfsDiSz1y-40" edge="1">
                    <mxGeometry relative="1" as="geometry"/>
                </mxCell>
                <mxCell id="ZI_c8G1m_tDhfsDiSz1y-48" value="&lt;font style=&quot;font-size: 18px;&quot;&gt;Cross Validation&lt;/font&gt;" style="rounded=0;whiteSpace=wrap;html=1;fillColor=#ffe6cc;strokeColor=#d79b00;" parent="ZI_c8G1m_tDhfsDiSz1y-1" vertex="1">
                    <mxGeometry x="1530" y="620" width="120" height="60" as="geometry"/>
                </mxCell>
                <mxCell id="ZI_c8G1m_tDhfsDiSz1y-49" style="edgeStyle=none;html=1;exitX=0.5;exitY=0;exitDx=0;exitDy=0;entryX=0;entryY=0.5;entryDx=0;entryDy=0;" parent="ZI_c8G1m_tDhfsDiSz1y-1" source="ZI_c8G1m_tDhfsDiSz1y-50" target="ZI_c8G1m_tDhfsDiSz1y-31" edge="1">
                    <mxGeometry relative="1" as="geometry">
                        <Array as="points">
                            <mxPoint x="1395" y="190"/>
                        </Array>
                    </mxGeometry>
                </mxCell>
                <mxCell id="ZI_c8G1m_tDhfsDiSz1y-50" value="&lt;font style=&quot;font-size: 18px;&quot;&gt;Transformed Training Data&lt;/font&gt;" style="rounded=1;whiteSpace=wrap;html=1;fillColor=#d5e8d4;strokeColor=#82b366;" parent="ZI_c8G1m_tDhfsDiSz1y-1" vertex="1">
                    <mxGeometry x="1335" y="440" width="120" height="60" as="geometry"/>
                </mxCell>
            </root>
        </mxGraphModel>
    </diagram>
    <diagram name="Copy of Page-2" id="Lej_gyNIjnGK9uaApL_-">
        <mxGraphModel dx="1136" dy="779" grid="1" gridSize="10" guides="1" tooltips="1" connect="1" arrows="1" fold="1" page="1" pageScale="1" pageWidth="850" pageHeight="1100" math="0" shadow="0">
            <root>
                <mxCell id="qVBO34NeZAfMhTnUqLgW-0"/>
                <mxCell id="qVBO34NeZAfMhTnUqLgW-1" parent="qVBO34NeZAfMhTnUqLgW-0"/>
                <mxCell id="qVBO34NeZAfMhTnUqLgW-2" value="&lt;font style=&quot;font-size: 18px;&quot;&gt;Raw Sensor Data&lt;/font&gt;" style="rounded=1;whiteSpace=wrap;html=1;fillColor=#d5e8d4;strokeColor=#82b366;" parent="qVBO34NeZAfMhTnUqLgW-1" vertex="1">
                    <mxGeometry x="360" y="370" width="120" height="60" as="geometry"/>
                </mxCell>
                <mxCell id="qVBO34NeZAfMhTnUqLgW-3" value="&lt;sup&gt;&lt;font style=&quot;font-size: 18px;&quot;&gt;Vector of 10, &amp;lt;F1 ... F8, IR, CLEAR&amp;gt;&lt;/font&gt;&lt;/sup&gt;" style="rounded=0;whiteSpace=wrap;html=1;fillColor=#fff2cc;strokeColor=#d6b656;" parent="qVBO34NeZAfMhTnUqLgW-1" vertex="1">
                    <mxGeometry x="570" y="370" width="460" height="60" as="geometry"/>
                </mxCell>
                <mxCell id="qVBO34NeZAfMhTnUqLgW-4" value="&lt;font style=&quot;font-size: 18px;&quot;&gt;Reconstruction&lt;/font&gt;" style="shape=process;whiteSpace=wrap;html=1;backgroundOutline=1;fillColor=#ffe6cc;strokeColor=#d79b00;" parent="qVBO34NeZAfMhTnUqLgW-1" vertex="1">
                    <mxGeometry x="325" y="510" width="190" height="60" as="geometry"/>
                </mxCell>
                <mxCell id="qVBO34NeZAfMhTnUqLgW-5" value="&lt;font style=&quot;font-size: 18px;&quot;&gt;Alpha Opics&lt;/font&gt;" style="rounded=1;whiteSpace=wrap;html=1;fillColor=#d5e8d4;strokeColor=#82b366;" parent="qVBO34NeZAfMhTnUqLgW-1" vertex="1">
                    <mxGeometry x="570" y="470" width="120" height="60" as="geometry"/>
                </mxCell>
                <mxCell id="qVBO34NeZAfMhTnUqLgW-6" value="&lt;font style=&quot;font-size: 18px;&quot;&gt;Visible SPD&lt;/font&gt;" style="rounded=1;whiteSpace=wrap;html=1;fillColor=#d5e8d4;strokeColor=#82b366;" parent="qVBO34NeZAfMhTnUqLgW-1" vertex="1">
                    <mxGeometry x="570" y="560" width="120" height="60" as="geometry"/>
                </mxCell>
                <mxCell id="qVBO34NeZAfMhTnUqLgW-7" value="&lt;sup&gt;&lt;font style=&quot;font-size: 18px;&quot;&gt;&amp;lt;PHO, MEDI, SC, MC, LC, RH&amp;gt;&lt;/font&gt;&lt;/sup&gt;" style="rounded=0;whiteSpace=wrap;html=1;fillColor=#fff2cc;strokeColor=#d6b656;" parent="qVBO34NeZAfMhTnUqLgW-1" vertex="1">
                    <mxGeometry x="740" y="470" width="290" height="60" as="geometry"/>
                </mxCell>
                <mxCell id="qVBO34NeZAfMhTnUqLgW-8" value="&lt;sup&gt;&lt;font style=&quot;font-size: 18px;&quot;&gt;Vector of 9, &amp;lt;415 ... 750&amp;gt;&lt;/font&gt;&lt;/sup&gt;" style="rounded=0;whiteSpace=wrap;html=1;fillColor=#fff2cc;strokeColor=#d6b656;" parent="qVBO34NeZAfMhTnUqLgW-1" vertex="1">
                    <mxGeometry x="740" y="560" width="290" height="60" as="geometry"/>
                </mxCell>
                <mxCell id="qVBO34NeZAfMhTnUqLgW-9" value="" style="shape=curlyBracket;whiteSpace=wrap;html=1;rounded=1;flipH=1;labelPosition=right;verticalLabelPosition=middle;align=left;verticalAlign=middle;" parent="qVBO34NeZAfMhTnUqLgW-1" vertex="1">
                    <mxGeometry x="1050" y="400" width="20" height="200" as="geometry"/>
                </mxCell>
                <mxCell id="qVBO34NeZAfMhTnUqLgW-10" value="&lt;font style=&quot;font-size: 18px;&quot;&gt;Light&lt;/font&gt;&lt;div&gt;&lt;font size=&quot;3&quot;&gt;Vectors&lt;/font&gt;&lt;/div&gt;&lt;div&gt;&lt;font size=&quot;3&quot; style=&quot;&quot;&gt;With&lt;/font&gt;&lt;/div&gt;&lt;div&gt;&lt;font size=&quot;3&quot; style=&quot;&quot;&gt;Intensity&lt;/font&gt;&lt;/div&gt;&lt;div&gt;&lt;font size=&quot;3&quot; style=&quot;&quot;&gt;&lt;br&gt;&lt;/font&gt;&lt;/div&gt;&lt;div&gt;&lt;font size=&quot;3&quot; style=&quot;&quot;&gt;&lt;i style=&quot;&quot;&gt;V&lt;sub style=&quot;&quot;&gt;Light-or&lt;/sub&gt;&lt;/i&gt;&lt;/font&gt;&lt;/div&gt;" style="text;html=1;align=center;verticalAlign=middle;whiteSpace=wrap;rounded=0;fillColor=#d5e8d4;strokeColor=#82b366;" parent="qVBO34NeZAfMhTnUqLgW-1" vertex="1">
                    <mxGeometry x="1080" y="430" width="85" height="140" as="geometry"/>
                </mxCell>
                <mxCell id="qVBO34NeZAfMhTnUqLgW-11" value="&lt;font style=&quot;font-size: 18px;&quot;&gt;L2 Normalisation&lt;/font&gt;" style="shape=process;whiteSpace=wrap;html=1;backgroundOutline=1;fillColor=#ffe6cc;strokeColor=#d79b00;" parent="qVBO34NeZAfMhTnUqLgW-1" vertex="1">
                    <mxGeometry x="325" y="719.5" width="190" height="60" as="geometry"/>
                </mxCell>
                <mxCell id="qVBO34NeZAfMhTnUqLgW-12" value="&lt;font style=&quot;font-size: 18px;&quot;&gt;Light Vectors Without Intensity&lt;/font&gt;&lt;div&gt;&lt;font size=&quot;3&quot; style=&quot;&quot;&gt;&lt;i style=&quot;&quot;&gt;V&lt;sub style=&quot;&quot;&gt;Light&lt;/sub&gt;&lt;/i&gt;&lt;/font&gt;&lt;/div&gt;" style="rounded=0;whiteSpace=wrap;html=1;fillColor=#d5e8d4;strokeColor=#82b366;" parent="qVBO34NeZAfMhTnUqLgW-1" vertex="1">
                    <mxGeometry x="580" y="664" width="250" height="60" as="geometry"/>
                </mxCell>
                <mxCell id="qVBO34NeZAfMhTnUqLgW-13" value="&lt;font style=&quot;font-size: 18px;&quot;&gt;Intensity&lt;/font&gt;" style="rounded=1;whiteSpace=wrap;html=1;fillColor=#e1d5e7;strokeColor=#9673a6;" parent="qVBO34NeZAfMhTnUqLgW-1" vertex="1">
                    <mxGeometry x="640" y="784" width="120" height="60" as="geometry"/>
                </mxCell>
                <mxCell id="qVBO34NeZAfMhTnUqLgW-14" value="" style="shape=curlyBracket;whiteSpace=wrap;html=1;rounded=1;labelPosition=left;verticalLabelPosition=middle;align=right;verticalAlign=middle;" parent="qVBO34NeZAfMhTnUqLgW-1" vertex="1">
                    <mxGeometry x="530" y="480" width="20" height="120" as="geometry"/>
                </mxCell>
                <mxCell id="qVBO34NeZAfMhTnUqLgW-15" value="" style="shape=flexArrow;endArrow=classic;html=1;" parent="qVBO34NeZAfMhTnUqLgW-1" edge="1">
                    <mxGeometry width="50" height="50" relative="1" as="geometry">
                        <mxPoint x="419.5" y="440" as="sourcePoint"/>
                        <mxPoint x="419.5" y="495" as="targetPoint"/>
                    </mxGeometry>
                </mxCell>
                <mxCell id="qVBO34NeZAfMhTnUqLgW-16" value="&lt;font style=&quot;font-size: 18px;&quot;&gt;Seperate Intensity from Vector&lt;/font&gt;" style="text;html=1;align=center;verticalAlign=middle;whiteSpace=wrap;rounded=0;" parent="qVBO34NeZAfMhTnUqLgW-1" vertex="1">
                    <mxGeometry x="560" y="739" width="280" height="30" as="geometry"/>
                </mxCell>
                <mxCell id="qVBO34NeZAfMhTnUqLgW-17" value="&lt;span style=&quot;font-size: 18px;&quot;&gt;Dimension Reduction&lt;/span&gt;" style="shape=process;whiteSpace=wrap;html=1;backgroundOutline=1;fillColor=#ffe6cc;strokeColor=#d79b00;" parent="qVBO34NeZAfMhTnUqLgW-1" vertex="1">
                    <mxGeometry x="950" y="664" width="190" height="60" as="geometry"/>
                </mxCell>
                <mxCell id="qVBO34NeZAfMhTnUqLgW-18" value="&lt;font style=&quot;font-size: 18px;&quot;&gt;Vector of PCs&lt;/font&gt;&lt;div&gt;&lt;font size=&quot;3&quot; style=&quot;&quot;&gt;&lt;i style=&quot;&quot;&gt;V&lt;sub style=&quot;&quot;&gt;Light-PCA&lt;/sub&gt;&lt;/i&gt;&lt;/font&gt;&lt;/div&gt;" style="rounded=1;whiteSpace=wrap;html=1;fillColor=#e1d5e7;strokeColor=#9673a6;" parent="qVBO34NeZAfMhTnUqLgW-1" vertex="1">
                    <mxGeometry x="925" y="781.5" width="240" height="60" as="geometry"/>
                </mxCell>
                <mxCell id="qVBO34NeZAfMhTnUqLgW-19" value="" style="shape=curlyBracket;whiteSpace=wrap;html=1;rounded=1;labelPosition=left;verticalLabelPosition=middle;align=right;verticalAlign=middle;" parent="qVBO34NeZAfMhTnUqLgW-1" vertex="1">
                    <mxGeometry x="530" y="691.5" width="20" height="120" as="geometry"/>
                </mxCell>
                <mxCell id="qVBO34NeZAfMhTnUqLgW-20" value="" style="shape=flexArrow;endArrow=classic;html=1;" parent="qVBO34NeZAfMhTnUqLgW-1" edge="1">
                    <mxGeometry width="50" height="50" relative="1" as="geometry">
                        <mxPoint x="860" y="691.5" as="sourcePoint"/>
                        <mxPoint x="930" y="691.5" as="targetPoint"/>
                    </mxGeometry>
                </mxCell>
                <mxCell id="qVBO34NeZAfMhTnUqLgW-21" value="" style="shape=flexArrow;endArrow=classic;html=1;" parent="qVBO34NeZAfMhTnUqLgW-1" edge="1">
                    <mxGeometry width="50" height="50" relative="1" as="geometry">
                        <mxPoint x="1050" y="734" as="sourcePoint"/>
                        <mxPoint x="1050.5" y="769" as="targetPoint"/>
                    </mxGeometry>
                </mxCell>
                <mxCell id="qVBO34NeZAfMhTnUqLgW-22" value="&lt;font style=&quot;font-size: 18px;&quot;&gt;Hourly Timestamp&lt;/font&gt;" style="rounded=1;whiteSpace=wrap;html=1;fillColor=#dae8fc;strokeColor=#6c8ebf;" parent="qVBO34NeZAfMhTnUqLgW-1" vertex="1">
                    <mxGeometry x="125" y="370" width="120" height="60" as="geometry"/>
                </mxCell>
                <mxCell id="qVBO34NeZAfMhTnUqLgW-23" value="&lt;font style=&quot;font-size: 18px;&quot;&gt;Complex Circular Mapping&lt;/font&gt;" style="shape=process;whiteSpace=wrap;html=1;backgroundOutline=1;fillColor=#ffe6cc;strokeColor=#d79b00;" parent="qVBO34NeZAfMhTnUqLgW-1" vertex="1">
                    <mxGeometry x="90" y="510" width="190" height="60" as="geometry"/>
                </mxCell>
                <mxCell id="qVBO34NeZAfMhTnUqLgW-24" value="" style="shape=flexArrow;endArrow=classic;html=1;" parent="qVBO34NeZAfMhTnUqLgW-1" edge="1">
                    <mxGeometry width="50" height="50" relative="1" as="geometry">
                        <mxPoint x="184.5" y="440" as="sourcePoint"/>
                        <mxPoint x="184.5" y="495" as="targetPoint"/>
                    </mxGeometry>
                </mxCell>
                <mxCell id="qVBO34NeZAfMhTnUqLgW-25" value="&lt;font style=&quot;font-size: 18px;&quot;&gt;Time in Complex Domain&lt;/font&gt;" style="rounded=0;whiteSpace=wrap;html=1;fillColor=#dae8fc;strokeColor=#6c8ebf;" parent="qVBO34NeZAfMhTnUqLgW-1" vertex="1">
                    <mxGeometry x="102.5" y="620" width="165" height="60" as="geometry"/>
                </mxCell>
                <mxCell id="qVBO34NeZAfMhTnUqLgW-26" value="&lt;span style=&quot;font-size: 18px;&quot;&gt;Euler&#39;s Formula&lt;/span&gt;" style="shape=process;whiteSpace=wrap;html=1;backgroundOutline=1;fillColor=#ffe6cc;strokeColor=#d79b00;" parent="qVBO34NeZAfMhTnUqLgW-1" vertex="1">
                    <mxGeometry x="90" y="720" width="190" height="60" as="geometry"/>
                </mxCell>
                <mxCell id="qVBO34NeZAfMhTnUqLgW-27" value="&lt;span style=&quot;font-size: 18px;&quot;&gt;Time Vector&lt;/span&gt;&lt;div&gt;&lt;span style=&quot;font-size: 18px;&quot;&gt;&lt;i&gt;V&lt;sub&gt;t&lt;/sub&gt;&lt;/i&gt;&lt;/span&gt;&lt;/div&gt;" style="rounded=1;whiteSpace=wrap;html=1;fillColor=#e1d5e7;strokeColor=#9673a6;" parent="qVBO34NeZAfMhTnUqLgW-1" vertex="1">
                    <mxGeometry x="102.5" y="830" width="165" height="60" as="geometry"/>
                </mxCell>
                <mxCell id="qVBO34NeZAfMhTnUqLgW-28" value="" style="shape=flexArrow;endArrow=classic;html=1;" parent="qVBO34NeZAfMhTnUqLgW-1" edge="1">
                    <mxGeometry width="50" height="50" relative="1" as="geometry">
                        <mxPoint x="184.5" y="580" as="sourcePoint"/>
                        <mxPoint x="185" y="615" as="targetPoint"/>
                    </mxGeometry>
                </mxCell>
                <mxCell id="qVBO34NeZAfMhTnUqLgW-29" value="" style="shape=flexArrow;endArrow=classic;html=1;" parent="qVBO34NeZAfMhTnUqLgW-1" edge="1">
                    <mxGeometry width="50" height="50" relative="1" as="geometry">
                        <mxPoint x="184.5" y="682.5" as="sourcePoint"/>
                        <mxPoint x="185" y="717.5" as="targetPoint"/>
                    </mxGeometry>
                </mxCell>
                <mxCell id="qVBO34NeZAfMhTnUqLgW-30" value="" style="shape=flexArrow;endArrow=classic;html=1;" parent="qVBO34NeZAfMhTnUqLgW-1" edge="1">
                    <mxGeometry width="50" height="50" relative="1" as="geometry">
                        <mxPoint x="184.5" y="785" as="sourcePoint"/>
                        <mxPoint x="185" y="820" as="targetPoint"/>
                    </mxGeometry>
                </mxCell>
                <mxCell id="qVBO34NeZAfMhTnUqLgW-31" value="&lt;font style=&quot;font-size: 24px;&quot;&gt;Machine Learning Ready Features: {&lt;i style=&quot;color: rgb(63, 63, 63);&quot;&gt;V&lt;sub&gt;t&lt;/sub&gt;&lt;/i&gt;, &lt;i style=&quot;color: rgb(63, 63, 63);&quot;&gt;V&lt;sub&gt;Light-PCA&lt;/sub&gt;&lt;/i&gt;, &lt;span style=&quot;color: rgb(63, 63, 63);&quot;&gt;Intensity}&lt;/span&gt;&lt;/font&gt;" style="rounded=1;whiteSpace=wrap;html=1;fillColor=#f8cecc;strokeColor=#b85450;" parent="qVBO34NeZAfMhTnUqLgW-1" vertex="1">
                    <mxGeometry x="240" y="920" width="770" height="60" as="geometry"/>
                </mxCell>
                <mxCell id="qVBO34NeZAfMhTnUqLgW-32" value="" style="shape=flexArrow;endArrow=classic;html=1;" parent="qVBO34NeZAfMhTnUqLgW-1" edge="1">
                    <mxGeometry width="50" height="50" relative="1" as="geometry">
                        <mxPoint x="419.5" y="580" as="sourcePoint"/>
                        <mxPoint x="420" y="615" as="targetPoint"/>
                    </mxGeometry>
                </mxCell>
                <mxCell id="qVBO34NeZAfMhTnUqLgW-33" value="" style="shape=flexArrow;endArrow=classic;html=1;" parent="qVBO34NeZAfMhTnUqLgW-1" edge="1">
                    <mxGeometry width="50" height="50" relative="1" as="geometry">
                        <mxPoint x="419.5" y="682.5" as="sourcePoint"/>
                        <mxPoint x="420" y="717.5" as="targetPoint"/>
                    </mxGeometry>
                </mxCell>
                <mxCell id="qVBO34NeZAfMhTnUqLgW-34" value="&lt;font style=&quot;font-size: 18px;&quot;&gt;Logarithmic Transformation&lt;/font&gt;" style="shape=process;whiteSpace=wrap;html=1;backgroundOutline=1;fillColor=#ffe6cc;strokeColor=#d79b00;" parent="qVBO34NeZAfMhTnUqLgW-1" vertex="1">
                    <mxGeometry x="325" y="620" width="190" height="60" as="geometry"/>
                </mxCell>
            </root>
        </mxGraphModel>
    </diagram>
</mxfile>